PathFileType	4	(X/Y/Z)	D:\TRACE\v60_Jaco2_6-2-23\BothDRS_Motion1_7-platform.trc
DataRate	CameraRate	NumFrames	NumMarkers	Units	OrigDataRate	OrigDataStartFrame	OrigNumFrames
100.00	100.00	      66	5	mm	100.00	938	      7500
Frame#	Time	Left_Front			Right_Front			Left_Aft			Right_Aft			Post			
		X1	Y1	Z1	X2	Y2	Z2	X3	Y3	Z3	X4	Y4	Z4	X5	Y5	Z5	

938	9.370	-767.35388	-18.09567	-644.90155	802.52649	-16.26379	-650.29395	-675.08221	25.08589	489.15790	766.88318	25.92877	498.42410	18.30045	1267.72864	-1019.88843	
939	9.380	-768.10168	-18.41487	-645.02386	801.99512	-16.41661	-650.29462	-675.71191	25.24433	489.25729	766.08063	26.04043	498.40390	17.69195	1267.48193	-1020.14307	
940	9.390	-768.61218	-18.62066	-645.17474	801.39233	-16.56068	-650.30566	-676.30084	25.12388	489.15704	765.26617	26.25630	498.39032	17.16553	1267.09863	-1020.45691	
941	9.400	-769.49481	-18.84365	-645.21320	800.64246	-16.66526	-650.21344	-676.98273	25.17622	489.19385	764.71570	26.39126	498.32822	16.17270	1266.84021	-1020.50842	
942	9.410	-770.17566	-18.99446	-645.07153	799.99481	-16.91752	-650.10059	-677.95911	25.89856	489.10110	764.02075	26.43556	498.36438	15.32755	1266.50476	-1020.78302	
943	9.420	-770.93616	-19.13971	-645.13293	799.12750	-17.05635	-650.19928	-678.97870	26.24517	489.04950	763.10590	26.58047	498.32916	14.47548	1266.41626	-1020.84070	
944	9.430	-771.68848	-19.17344	-645.18274	798.16644	-17.22128	-650.53668	-679.67279	26.38978	489.06561	762.43854	26.67500	498.17648	13.98057	1266.17529	-1020.85809	
945	9.440	-772.51672	-19.28012	-645.26782	797.59003	-17.27952	-650.43274	-680.50177	26.29826	488.95236	761.64917	26.78213	498.23523	13.04453	1265.92480	-1021.31299	
946	9.450	-773.11603	-19.37917	-645.29883	796.85181	-17.40125	-650.42010	-681.23669	26.33334	488.99185	760.46375	26.76000	498.14841	11.91975	1265.73108	-1021.70367	
947	9.460	-774.20044	-19.73163	-645.16278	795.46741	-17.79540	-650.55902	-681.97729	26.47781	489.07825	760.04688	26.93756	498.26236	11.48011	1265.55298	-1022.06946	
948	9.470	-774.72919	-19.68583	-645.17633	794.76288	-17.92742	-650.55432	-682.70898	26.59130	488.92151	759.50500	27.06300	498.11215	10.82851	1265.56165	-1022.42010	
949	9.480	-775.46368	-19.69269	-645.22205	794.24518	-18.03156	-650.71307	-683.33252	26.64754	488.83411	758.39862	26.91615	498.06525	9.98032	1265.22595	-1023.08887	
950	9.490	-776.33057	-19.60170	-645.40656	793.43500	-18.11391	-650.67590	-684.51105	26.81545	488.76392	757.52032	27.12981	498.14679	9.33172	1265.01672	-1023.34283	
951	9.500	-777.38397	-19.81682	-645.20764	792.40277	-18.21455	-650.63312	-685.24988	26.77383	488.70682	756.96429	27.19554	498.19025	8.31030	1264.81665	-1023.59686	
952	9.510	-778.10132	-20.04888	-645.25232	791.53503	-18.43615	-650.72437	-685.89886	26.80791	488.69678	755.92120	27.09270	498.00800	7.69706	1264.71277	-1023.79883	
953	9.520	-778.83057	-20.05464	-645.23120	790.94855	-18.33351	-650.76019	-686.96539	26.78628	488.73224	755.16742	27.24845	498.00211	6.95018	1264.77087	-1024.06934	
954	9.530	-779.55286	-19.97196	-645.46960	790.04828	-18.37140	-650.86505	-687.82312	26.97828	488.75598	754.38690	27.51967	498.07422	6.19208	1264.62488	-1024.04395	
955	9.540	-780.38837	-19.99366	-645.35944	788.82764	-18.38354	-650.73621	-688.43475	26.95650	488.82565	753.39777	27.20178	498.10001	5.07679	1264.51709	-1023.84698	
956	9.550	-781.55994	-20.06867	-645.25098	788.08374	-18.50377	-650.62390	-689.37354	27.13304	488.83395	752.53125	27.28776	497.99356	4.27597	1264.15063	-1023.69934	
957	9.560	-782.35657	-20.30363	-645.20654	787.48242	-18.57886	-650.72858	-690.55054	27.21903	488.78259	752.01978	27.56300	498.05109	3.54796	1264.08008	-1023.68414	
958	9.570	-783.12622	-20.30056	-645.38306	786.62549	-18.77225	-650.84003	-691.00128	26.93319	488.75211	750.65356	27.51569	497.99271	2.52557	1264.19409	-1023.80994	
959	9.580	-783.93237	-20.21255	-645.65295	785.72650	-18.74462	-650.86591	-691.93738	27.16784	488.70874	749.84821	27.43319	497.93161	1.82118	1264.22571	-1023.77783	
960	9.590	-784.94836	-20.13906	-645.46216	784.85358	-18.65536	-650.87134	-693.06311	27.33261	488.67120	749.27344	27.53256	498.12851	0.80340	1264.12646	-1023.62054	
961	9.600	-785.93188	-20.33108	-645.38989	784.04993	-18.58907	-650.72058	-693.65765	27.05638	488.72903	748.10132	27.45106	498.02054	-0.00283	1263.93909	-1023.69757	
962	9.610	-786.54724	-20.33287	-645.39850	782.79315	-18.42283	-650.72534	-694.69391	27.16870	488.76047	747.24561	27.54926	497.99362	-1.37115	1264.15601	-1024.01733	
963	9.620	-787.53491	-20.12800	-645.45551	782.18915	-18.44696	-650.66193	-696.31512	27.86337	488.59830	746.63434	27.72110	498.13589	-2.04761	1264.08740	-1024.18604	
964	9.630	-788.35541	-19.96845	-645.30377	781.42596	-18.43336	-650.61865	-696.98383	27.93722	488.82922	745.44189	27.59617	498.09656	-2.55292	1264.13977	-1024.12256	
965	9.640	-789.41400	-20.35924	-645.34344	780.57001	-18.83344	-650.48761	-696.87311	26.34193	488.86673	744.77502	27.65314	498.10699	-3.79839	1264.36792	-1024.13635	
966	9.650	-790.17676	-20.40046	-645.58893	779.57147	-19.11407	-650.63159	-697.92847	26.43844	488.88464	743.69702	27.57797	498.09747	-5.16973	1264.22900	-1024.14453	
967	9.660	-791.46375	-20.33298	-645.34119	778.61011	-18.66422	-650.83191	-698.65863	26.27629	488.90802	742.62396	27.47389	498.19604	-5.59132	1264.03149	-1024.18250	
968	9.670	-792.18073	-20.06479	-645.19183	777.67377	-18.52617	-650.59906	-699.75873	26.37550	488.78262	742.07733	27.54124	498.19260	-6.16653	1263.87891	-1024.30212	
969	9.680	-793.27924	-20.00185	-645.12115	776.49805	-18.60265	-650.52795	-700.90363	26.59015	488.83026	740.75323	27.34256	498.05347	-7.54595	1264.12451	-1024.45923	
970	9.690	-794.08746	-19.85527	-645.34393	775.85242	-18.58917	-650.45178	-701.67554	26.78619	489.09369	739.80841	27.33731	498.15823	-8.57847	1264.33667	-1024.18945	
971	9.700	-795.18817	-19.73329	-645.42163	774.94330	-18.41893	-650.53430	-702.83362	26.71396	488.98950	739.29431	27.46634	498.29272	-9.14786	1264.50818	-1024.00146	
972	9.710	-796.12018	-19.89050	-645.24054	773.87067	-18.22718	-650.34625	-703.73352	26.54799	489.03732	737.79901	27.09933	498.27527	-10.10806	1264.76526	-1023.87860	
973	9.720	-796.93066	-19.87677	-645.04633	772.84259	-18.26541	-650.43811	-704.80206	26.47595	489.13199	737.10144	27.04886	498.34238	-11.30210	1264.71228	-1023.45270	
974	9.730	-797.93524	-19.63399	-645.05670	771.92456	-18.01740	-650.37842	-705.65533	26.32148	489.29666	736.18036	27.10631	498.34586	-12.03123	1264.98083	-1023.14594	
975	9.740	-798.95343	-19.30969	-645.01306	771.26819	-17.85364	-650.26288	-706.92633	27.25377	489.42636	735.21735	27.05004	498.26566	-12.93629	1265.35193	-1022.94611	
976	9.750	-799.79980	-19.18200	-645.01288	770.01135	-17.70834	-650.34656	-708.01740	27.03538	489.16800	734.40161	27.10398	498.30066	-14.48437	1265.58020	-1022.34485	
977	9.760	-800.66748	-19.19326	-645.04395	769.03143	-17.84889	-650.32861	-708.73029	26.98816	489.59995	733.02466	26.61314	498.36865	-14.91836	1265.58203	-1022.07190	
978	9.770	-802.06091	-19.25876	-645.02985	767.95227	-18.01678	-650.44531	-709.69745	26.78103	489.55725	732.35797	26.77770	498.46152	-16.08825	1265.79248	-1021.32587	
979	9.780	-802.93311	-19.12815	-645.07520	766.98645	-17.71664	-650.32910	-710.84857	26.62086	489.59311	731.33264	26.66599	498.51584	-16.95528	1265.95300	-1020.93195	
980	9.790	-803.63171	-18.92958	-644.88702	766.13635	-17.60365	-650.22949	-711.64746	26.48205	489.51181	730.30719	26.52006	498.54092	-17.80222	1266.30334	-1020.74866	
981	9.800	-804.57483	-18.78338	-644.85596	765.13727	-17.37824	-650.24872	-712.63110	26.50071	489.42645	729.66425	26.38359	498.62393	-18.87495	1266.70679	-1020.29236	
982	9.810	-805.77496	-18.35752	-644.87726	764.28107	-17.20770	-650.21960	-713.88586	26.45518	489.53696	728.34259	26.48955	498.72412	-20.12554	1266.88403	-1020.29419	
983	9.820	-806.79999	-18.34908	-645.00018	762.86609	-16.99298	-650.37207	-714.71112	26.07585	489.57138	727.44006	26.19382	498.83673	-20.89091	1267.20313	-1020.19006	
984	9.830	-807.45038	-18.42350	-644.69940	762.06439	-16.86892	-650.12689	-715.60394	25.77198	489.55557	726.57733	26.11581	498.83392	-21.67089	1267.23010	-1019.64691	
985	9.840	-808.69415	-18.11300	-644.52716	761.22693	-16.69767	-650.08704	-717.01758	26.12381	489.72897	725.29327	25.78619	498.75302	-22.82755	1267.64282	-1019.40247	
986	9.850	-809.61133	-17.81856	-644.54950	760.28308	-16.54968	-649.94696	-717.82458	26.17670	489.79501	724.66809	25.81945	498.99783	-23.54821	1268.15662	-1019.25507	
987	9.860	-810.47766	-17.32017	-644.61194	759.14301	-16.20004	-649.88220	-718.80896	26.02930	489.74832	723.63434	25.53217	499.04312	-24.53085	1268.66003	-1018.68774	
988	9.870	-811.40857	-17.03197	-644.43420	759.13599	-15.69852	-649.35553	-720.12872	25.99840	489.82733	722.67139	25.31517	499.00089	-25.63199	1268.93555	-1018.63403	
989	9.880	-812.59125	-17.21098	-644.09717	757.29358	-15.94937	-649.79071	-720.86975	25.69266	490.20663	721.79553	25.17242	499.14655	-26.81140	1269.08386	-1017.84241	
990	9.890	-813.52869	-16.89570	-644.53223	756.45081	-15.48834	-649.57068	-721.37317	24.67298	490.10852	720.38165	24.82611	499.17761	-27.39801	1269.37292	-1017.23828	
991	9.900	-814.25940	-16.31495	-644.67365	755.85132	-15.14452	-649.38715	-722.33594	24.71574	490.00803	719.80554	24.94126	499.18069	-28.43877	1269.84814	-1016.37195	
992	9.910	-815.31573	-15.91387	-644.27649	754.87671	-14.74278	-649.41656	-723.04333	24.56901	489.92130	718.80597	24.81477	499.28885	-29.31475	1270.42212	-1015.72736	
993	9.920	-816.22839	-15.67534	-644.23267	753.94360	-14.52564	-649.33209	-724.41235	24.49204	489.99579	717.76483	24.40871	499.43472	-30.09165	1270.57397	-1014.80286	
994	9.930	-817.21753	-15.55757	-644.29633	752.69611	-14.37133	-649.36420	-725.17822	24.25455	490.23557	717.10101	24.25834	499.42291	-31.20813	1270.89343	-1014.23547	
995	9.940	-817.93066	-15.24540	-644.45795	751.95044	-13.97630	-649.44684	-727.53467	25.49266	489.92154	715.81445	24.09795	499.42343	-32.32193	1271.38013	-1013.26324	
996	9.950	-819.16168	-15.30537	-644.00720	750.96228	-13.82258	-649.35785	-728.09277	24.77036	490.28207	714.90765	23.97983	499.72430	-33.03808	1271.91980	-1012.87775	
997	9.960	-820.00952	-14.85264	-643.90155	749.85284	-13.58702	-649.22046	-728.75549	24.59332	490.66147	714.26617	23.89136	499.82074	-34.03438	1272.45984	-1012.09833	
998	9.970	-821.02081	-14.39946	-644.04401	748.99414	-13.00033	-649.04700	-729.47742	24.26402	490.62408	712.61627	23.54178	499.91705	-35.07219	1273.10828	-1011.89307	
999	9.980	-822.01904	-14.05544	-643.83160	748.13086	-12.57558	-649.07513	-730.58704	24.30129	490.83704	712.20209	23.46419	499.99020	-35.78057	1273.44604	-1011.60620	
1000	9.990	-822.88715	-14.14308	-643.60535	747.44104	-12.72999	-648.93475	-731.53015	23.93583	491.02853	711.34766	23.03705	500.07272	-36.68856	1273.89001	-1011.07556	
1001	10.000	-823.73859	-14.06298	-643.57257	746.28510	-12.44216	-648.97443	-731.60876	22.65606	490.86731	709.06091	22.24845	500.87747	-37.88509	1274.32263	-1010.55402	
1002	10.010	-824.63837	-13.63447	-643.71814	745.40741	-12.08806	-648.89941	-732.63794	22.64281	491.00015	708.37054	21.68483	500.52649	-38.51119	1274.71863	-1009.70941	
1003	10.020	-825.70862	-12.87104	-643.81201	744.61011	-11.68491	-648.67047	-733.56006	22.28055	490.93475	707.46442	21.39126	500.63400	-39.21432	1275.26807	-1009.25580	
